HIERARCHY
ROOT reference
{
  OFFSET 0 0 0
  CHANNELS 6 Xposition Yposition Zposition Zrotation Xrotation Yrotation
  JOINT Hips
  {
    OFFSET 35.925 87.6582 86.2347
    CHANNELS 6 Xposition Yposition Zposition Zrotation Xrotation Yrotation
    JOINT Spine
    {
      OFFSET 0 7.76127 0
      CHANNELS 6 Xposition Yposition Zposition Zrotation Xrotation Yrotation
      JOINT Spine1
      {
        OFFSET 0 24.7858 0
        CHANNELS 6 Xposition Yposition Zposition Zrotation Xrotation Yrotation
        JOINT Neck
        {
          OFFSET 0 24.684 2.244
          CHANNELS 6 Xposition Yposition Zposition Zrotation Xrotation Yrotation
          JOINT Head
          {
            OFFSET 0 13.2509 -1.89299
            CHANNELS 6 Xposition Yposition Zposition Zrotation Xrotation Yrotation
            End Site
            {
              OFFSET 0 23.6624 0
            }
          }
        }
        JOINT LeftShoulder
        {
          OFFSET 3.79413 23.4442 -0.177979
          CHANNELS 6 Xposition Yposition Zposition Zrotation Xrotation Yrotation
          JOINT LeftArm
          {
            OFFSET 9.21107 0 0
            CHANNELS 6 Xposition Yposition Zposition Zrotation Xrotation Yrotation
            JOINT LeftForeArm
            {
              OFFSET 34.3528 0 0
              CHANNELS 6 Xposition Yposition Zposition Zrotation Xrotation Yrotation
              JOINT LeftHand
              {
                OFFSET 25.4606 0 0
                CHANNELS 6 Xposition Yposition Zposition Zrotation Xrotation Yrotation
                End Site
                {
                  OFFSET 14.1974 0 0
                }
              }
            }
          }
        }
        JOINT RightShoulder
        {
          OFFSET -3.76739 23.4442 -0.177979
          CHANNELS 6 Xposition Yposition Zposition Zrotation Xrotation Yrotation
          JOINT RightArm
          {
            OFFSET -9.21107 0 0
            CHANNELS 6 Xposition Yposition Zposition Zrotation Xrotation Yrotation
            JOINT RightForeArm
            {
              OFFSET -34.3528 0 0
              CHANNELS 6 Xposition Yposition Zposition Zrotation Xrotation Yrotation
              JOINT RightHand
              {
                OFFSET -25.4606 0 0
                CHANNELS 6 Xposition Yposition Zposition Zrotation Xrotation Yrotation
                End Site
                {
                  OFFSET -14.1974 0 0
                }
              }
            }
          }
        }
      }
    }
    JOINT LeftUpLeg
    {
      OFFSET 9.46496 0 0
      CHANNELS 6 Xposition Yposition Zposition Zrotation Xrotation Yrotation
      JOINT LeftLeg
      {
        OFFSET 0 -36.0737 0
        CHANNELS 6 Xposition Yposition Zposition Zrotation Xrotation Yrotation
        JOINT LeftFoot
        {
          OFFSET 0 -40.8088 0
          CHANNELS 6 Xposition Yposition Zposition Zrotation Xrotation Yrotation
          JOINT LeftToeBase
          {
            OFFSET 0 -6.15222 14.1974
            CHANNELS 6 Xposition Yposition Zposition Zrotation Xrotation Yrotation
            End Site
            {
              OFFSET 0 0 3.78598
            }
          }
        }
      }
    }
    JOINT RightUpLeg
    {
      OFFSET -9.46496 0 0
      CHANNELS 6 Xposition Yposition Zposition Zrotation Xrotation Yrotation
      JOINT RightLeg
      {
        OFFSET 0 -36.0737 0
        CHANNELS 6 Xposition Yposition Zposition Zrotation Xrotation Yrotation
        JOINT RightFoot
        {
          OFFSET 0 -40.8088 0
          CHANNELS 6 Xposition Yposition Zposition Zrotation Xrotation Yrotation
          JOINT RightToeBase
          {
            OFFSET 0 -6.15222 14.1974
            CHANNELS 6 Xposition Yposition Zposition Zrotation Xrotation Yrotation
            End Site
            {
              OFFSET 0 0 3.78598
            }
          }
        }
      }
    }
  }
}
MOTION
Frames:	6
Frame Time:	0.004
0 0 0 0 0 -0 -7.79182 78.2878 -211.262 0.106814 0.695487 9.04694 3.55271e-015 7.76127 0 0.334366 -5.46134 1.08326 -3.55271e-015 24.7858 -2.84217e-014 -1.47614 -4.36149 1.0003 -3.55271e-015 24.684 2.244 -0.588181 17.483 -3.05147 0 13.2509 -1.89299 3.04569 5.17496 -2.88365 3.79413 23.4442 -0.177979 11.8722 0.311998 -6.79808 9.21107 0 2.84217e-014 -10.3101 -2.25664 -1.4477 34.3528 5.68434e-014 0 2.4801 1.12987 -2.00104 25.4606 0 0 -7.34092 1.11482 0.909522 -3.76739 23.4442 -0.177979 -13.7745 -2.02763 -0.946335 -9.21107 2.84217e-014 2.84217e-014 14.6765 -4.06485 -3.47151 -34.3528 0 0 -2.64654 2.69523 -1.83908 -25.4606 2.84217e-014 -2.84217e-014 -0.212331 2.65187 0.217153 9.46496 0 -2.84217e-014 -4.07087 5.52159 -2.81316 0 -36.0737 0 1.43626 -0.93727 -7.15905 -8.88178e-016 -40.8088 0 3.61052 -4.20966 15.1723 -7.10543e-015 -6.15222 14.1974 4.96962e-017 0 -3.18055e-015 -9.46496 -1.42109e-014 0 1.05807 11.4801 -1.06998 1.77636e-015 -36.0737 2.84217e-014 1.14735 -12.3855 1.21852 -7.10543e-015 -40.8088 0 -2.06095 -0.872428 -22.0361 0 -6.15222 14.1974 -4.96962e-017 0 1.59028e-015 
0 0 0 0 0 -0 -7.79182 78.2878 -211.262 0.106814 0.695487 9.04694 3.55271e-015 7.76127 0 0.33405 -5.46135 1.07703 3.55271e-015 24.7858 0 -1.48615 -4.38647 1.00034 0 24.684 2.244 -0.610129 17.5011 -3.05178 -3.55271e-015 13.2509 -1.89299 3.10688 5.17496 -2.88365 3.79413 23.4442 -0.177979 11.8871 0.323816 -6.79809 9.21107 2.84217e-014 0 -10.3236 -2.24938 -1.4477 34.3528 0 0 2.46744 1.08192 -1.99138 25.4606 0 0 -7.28046 1.06548 0.93304 -3.76739 23.4442 -0.177979 -13.7528 -2.01478 -0.958583 -9.21107 0 0 14.691 -4.03754 -3.47139 -34.3528 0 2.84217e-014 -2.64766 2.66045 -1.83903 -25.4606 -2.84217e-014 0 -0.257408 2.61731 0.228902 9.46496 0 -2.84217e-014 -4.0591 5.51239 -2.80448 -3.55271e-015 -36.0737 2.84217e-014 1.43584 -0.940103 -7.16319 8.88178e-016 -40.8088 0 3.57209 -4.2142 15.1629 -7.10543e-015 -6.15222 14.1974 4.96962e-017 0 -0 -9.46496 -1.42109e-014 0 1.0717 11.4653 -1.06992 -5.32907e-015 -36.0737 0 1.14735 -12.3855 1.21852 3.55271e-015 -40.8088 2.84217e-014 -2.01288 -0.899283 -22.0643 0 -6.15222 14.1974 9.93923e-017 0 -0 
0 0 0 0 0 -0 -7.79182 78.2878 -211.262 0.106697 0.696224 9.04694 0 7.76127 -2.84217e-014 0.313031 -5.46025 1.07075 3.55271e-015 24.7858 -2.84217e-014 -1.44811 -4.3904 1.00034 3.55271e-015 24.684 2.244 -0.564313 17.5063 -3.0447 0 13.2509 -1.89299 3.00996 5.17496 -2.88365 3.79413 23.4442 -0.177979 11.8658 0.320659 -6.79685 9.21107 0 0 -10.3356 -2.22476 -1.44767 34.3528 0 0 2.5526 1.12822 -1.95997 25.4606 -2.84217e-014 0 -7.66681 1.12003 0.774643 -3.76739 23.4442 -0.177979 -13.7628 -2.0151 -0.956784 -9.21107 0 0 14.7021 -4.02502 -3.47134 -34.3528 0 2.84217e-014 -2.64809 2.64693 -1.83901 -25.4606 0 0 -0.28331 2.60378 0.226505 9.46496 -1.42109e-014 0 -4.06308 5.52364 -2.7928 3.55271e-015 -36.0737 0 1.44717 -0.971823 -7.10634 0 -40.8088 0 3.84281 -4.18014 15.0978 0 -6.15222 14.1974 -4.96962e-017 9.93923e-017 3.18055e-015 -9.46496 -1.42109e-014 -2.84217e-014 1.072 11.463 -1.06992 1.77636e-015 -36.0737 0 1.14735 -12.3855 1.21852 7.10543e-015 -40.8088 -2.84217e-014 -2.06225 -0.860195 -22.0575 0 -6.15222 14.1974 4.96962e-017 3.97569e-016 -0 
0 0 0 0 0 -0 -7.79393 78.2878 -211.262 0.103803 0.714397 9.04698 3.55271e-015 7.76127 0 0.325625 -5.47385 1.06752 3.55271e-015 24.7858 -2.84217e-014 -1.48598 -4.40544 0.997259 0 24.684 2.244 -0.561714 17.5281 -3.04234 0 13.2509 -1.89299 3.03802 5.17496 -2.88365 3.79413 23.4442 -0.177979 11.8875 0.330207 -6.79095 9.21107 -2.84217e-014 0 -10.3362 -2.23043 -1.45708 34.3528 2.84217e-014 0 2.48592 1.05774 -1.97225 25.4606 2.84217e-014 0 -7.30735 1.04229 0.911899 -3.76739 23.4442 -0.177979 -13.7353 -1.99915 -0.959104 -9.21107 -2.84217e-014 -2.84217e-014 14.7071 -4.01221 -3.47129 -34.3528 -2.84217e-014 0 -2.64884 2.62796 -1.83605 -25.4606 -2.84217e-014 0 -0.260436 2.58489 0.239673 9.46496 0 -2.84217e-014 -4.0593 5.49687 -2.82488 0 -36.0737 0 1.43388 -0.952165 -7.11705 -8.88178e-016 -40.8088 0 3.60972 -4.18823 15.1488 0 -6.15222 14.1974 -7.45443e-017 -9.93923e-017 -0 -9.46496 -1.42109e-014 0 1.06914 11.443 -1.06321 -1.77636e-015 -36.0737 -2.84217e-014 1.14492 -12.3855 1.20722 0 -40.8088 0 -2.10468 -0.874232 -22.0444 0 -6.15222 14.1974 -1.49089e-016 -1.98785e-016 -0 
0 0 0 0 0 -0 -7.79856 78.2878 -211.265 0.103622 0.715531 9.04698 -3.55271e-015 7.76127 0 0.306986 -5.47184 1.06468 7.10543e-015 24.7858 0 -1.45935 -4.40775 0.993901 7.10543e-015 24.684 2.244 -0.579087 17.5278 -3.04043 0 13.2509 -1.89299 3.05101 5.18041 -2.87601 3.79413 23.4442 -0.177979 11.8718 0.322833 -6.78517 9.21107 2.84217e-014 0 -10.3484 -2.15278 -1.44728 34.3528 -2.84217e-014 0 2.50573 1.01882 -1.96249 25.4606 -2.84217e-014 0 -7.2406 1.00638 0.875374 -3.76739 23.4442 -0.177979 -13.7435 -2.00613 -0.962089 -9.21107 0 0 14.718 -4.01133 -3.4764 -34.3528 0 0 -2.64899 2.62975 -1.83155 -25.4606 0 0 -0.301086 2.58669 0.236818 9.46496 1.42109e-014 -2.84217e-014 -4.05722 5.48447 -2.81666 0 -36.0737 0 1.434 -0.940093 -7.05088 8.88178e-016 -40.8088 2.84217e-014 3.85761 -4.18753 15.0601 7.10543e-015 -6.15222 14.1974 -3.72721e-017 -4.96962e-017 -3.18055e-015 -9.46496 1.42109e-014 0 1.06708 11.4416 -1.04622 1.77636e-015 -36.0737 0 1.14757 -12.3855 1.21955 -3.55271e-015 -40.8088 2.84217e-014 -2.14277 -0.859217 -22.0602 -1.42109e-014 -6.15222 14.1974 9.93923e-017 0 -0 
0 0 0 0 0 -0 -7.80307 78.2878 -211.267 0.104222 0.711765 9.04697 7.10543e-015 7.76127 0 0.315035 -5.45597 1.06092 0 24.7858 0 -1.47766 -4.4272 0.988699 0 24.684 2.244 -0.558104 17.5263 -3.03822 0 13.2509 -1.89299 3.04239 5.19639 -2.87177 3.79413 23.4442 -0.177979 11.8958 0.344557 -6.78468 9.21107 -2.84217e-014 2.84217e-014 -10.3586 -2.19424 -1.45164 34.3528 2.84217e-014 2.84217e-014 2.50687 0.999809 -1.96352 25.4606 0 2.84217e-014 -7.27831 0.985422 0.902519 -3.76739 23.4442 -0.177979 -13.7217 -2.00614 -0.963124 -9.21107 0 -2.84217e-014 14.7201 -3.99238 -3.48128 -34.3528 0 0 -2.64966 2.61673 -1.82585 -25.4606 0 0 -0.30742 2.57381 0.235595 9.46496 -1.42109e-014 0 -4.05238 5.48786 -2.80774 0 -36.0737 2.84217e-014 1.44041 -0.954744 -6.98785 0 -40.8088 0 3.79903 -4.18895 14.9797 -7.10543e-015 -6.15222 14.1974 -1.73937e-016 -9.93923e-017 -3.18055e-015 -9.46496 -1.42109e-014 0 1.08206 11.4378 -1.0736 0 -36.0737 0 1.14549 -12.3855 1.2099 0 -40.8088 0 -2.02462 -0.88157 -22.0681 0 -6.15222 14.1974 1.49089e-016 3.97569e-016 -1.59028e-015 
